<?xml version="1.0" encoding="UTF-8"?>
<svg width="20px" height="20px" viewBox="0 0 20 20" version="1.1" xmlns="http://www.w3.org/2000/svg" xmlns:xlink="http://www.w3.org/1999/xlink">
    <title>创业活跃力</title>
    <g id="页面-1" stroke="none" stroke-width="1" fill="none" fill-rule="evenodd">
        <g id="2温岭小微帮扶-活力晴雨表备份" transform="translate(-562.000000, -609.000000)">
            <g id="创业活跃力" transform="translate(562.000000, 609.000000)">
                <rect id="矩形" fill="#FFFFFF" x="0" y="0" width="20" height="20"></rect>
                <path d="M9.75013962,0 C4.9361108,0 1,3.93834469 1,8.75013962 C1,11.6877024 2.43862392,14.3750698 4.87579582,16.0013403 L4.87579582,18.4385122 C4.87579582,19.3141964 5.56383335,20 6.43728359,20 L13.0629956,20 C13.9386798,20 14.6244834,19.3119625 14.6244834,18.4385122 L14.6244834,16.0013403 C17.0616553,14.3773037 18.5002792,11.6251536 18.5002792,8.75013962 C18.5002792,3.9361108 14.5641684,0 9.75013962,0 Z M8.93700436,4.8743438 C8.93700436,4.43650173 9.31229755,3.99865967 9.75013962,3.99865967 L9.81268848,3.99865967 C10.0628839,3.99865967 10.2505305,4.06120853 10.3756283,4.24885513 C10.5632749,4.43650173 10.6258237,4.62414833 10.6258237,4.8743438 L10.6258237,5.49983246 C10.6258237,5.93767452 10.2505305,6.37551659 9.81268848,6.37551659 L9.75013962,6.37551659 C9.31229755,6.37551659 8.93700436,6.00022339 8.93700436,5.49983246 L8.93700436,4.8743438 Z M5.37395286,6.50061432 C5.24885513,6.31296772 5.24885513,6.06277226 5.311404,5.87512566 C5.37395286,5.62493019 5.4990506,5.49983246 5.6866972,5.37473473 L5.74924606,5.31218586 C5.8743438,5.24963699 5.99944153,5.18708813 6.18708813,5.18708813 C6.49983246,5.18708813 6.75002792,5.37473473 6.93767452,5.62493019 L7.25041885,6.18786999 C7.37551659,6.37551659 7.37551659,6.62571205 7.31296772,6.81335865 C7.25041885,7.06355412 7.12532112,7.18865185 6.93767452,7.31374958 L6.87512566,7.37629845 C6.75002792,7.43884731 6.62493019,7.50139618 6.43728359,7.50139618 C6.12453926,7.50139618 5.8743438,7.31374958 5.6866972,7.06355412 L5.37395286,6.50061432 Z M13.1255445,10.7517033 L10.8134703,12.0652295 L10.8134703,15.1256562 C10.8134703,15.688596 10.3130794,16.1889869 9.75013962,16.1889869 C9.18719982,16.1889869 8.68680889,15.688596 8.68680889,15.1256562 L8.68680889,12.0629956 L6.37473473,10.7494695 C5.8743438,10.4367251 5.6866972,9.81123646 5.99944153,9.31084553 C6.31218586,8.8104546 6.93767452,8.622808 7.43806545,8.93555233 L9.75013962,10.2513124 L12.0622138,8.93778622 C12.5626047,8.62504189 13.2506422,8.81268848 13.5008377,9.31307941 C13.7510332,9.81347035 13.6259354,10.5015079 13.1255445,10.7517033 Z M14.4390707,6.50061432 L14.1263264,7.06355412 C14.0012286,7.31374958 13.6884843,7.50139618 13.37574,7.50139618 C13.2506422,7.50139618 13.0629956,7.43884731 12.9378979,7.37629845 L12.875349,7.31374958 C12.6877024,7.18865185 12.5626047,7.00100525 12.5000558,6.81335865 C12.437507,6.56316319 12.5000558,6.37551659 12.5626047,6.18786999 L12.875349,5.62493019 C13.0004468,5.37473473 13.3131911,5.18708813 13.6259354,5.18708813 C13.7510332,5.18708813 13.9386798,5.24963699 14.0637775,5.31218586 L14.1263264,5.37473473 C14.313973,5.49983246 14.4390707,5.68747906 14.5016196,5.87512566 C14.6267173,6.06277226 14.5641684,6.25041885 14.4390707,6.50061432 Z" id="创作活跃力备份" fill="#158DFF" fill-rule="nonzero"></path>
            </g>
        </g>
    </g>
</svg>