<?xml version="1.0" encoding="UTF-8"?>
<svg width="24px" height="22px" viewBox="0 0 24 22" version="1.1" xmlns="http://www.w3.org/2000/svg" xmlns:xlink="http://www.w3.org/1999/xlink">
    <title>经营活跃力</title>
    <g id="页面-1" stroke="none" stroke-width="1" fill="none" fill-rule="evenodd">
        <g id="3温岭小微帮扶-活力晴雨表备份-2" transform="translate(-141.000000, -919.000000)" fill="#158DFF" fill-rule="nonzero">
            <path d="M163.084488,921.821584 L142.838383,921.821584 L141,927.323077 C141,929.021489 142.339954,930.387047 143.987158,930.387047 C145.634363,930.387047 146.974317,929.007834 146.974317,927.323077 C146.974317,929.021489 148.31427,930.387047 149.961475,930.387047 C151.608679,930.387047 152.948633,929.007834 152.948633,927.323077 C152.948633,929.021489 154.288587,930.387047 155.935792,930.387047 C157.582996,930.387047 158.92295,929.007834 158.92295,927.323077 C158.92295,929.021489 160.262904,930.387047 161.910108,930.387047 C163.557313,930.387047 164.897266,929.007834 164.897266,927.323077 L163.084488,921.821584 Z M144.867943,920.863987 L161.066876,920.863987 C161.681377,920.863987 162.178099,920.454319 162.178099,919.931993 C162.178099,919.419909 161.67967,919 161.068583,919 L144.866236,919 C144.253442,919 143.75672,919.421616 143.75672,919.931993 C143.75672,920.444078 144.253442,920.863987 144.866236,920.863987 L144.867943,920.863987 Z M158.948554,930.540673 C158.147776,931.316896 157.076638,931.751472 155.961396,931.752606 C154.845661,931.753996 153.77361,931.31905 152.974237,930.540673 C152.17346,931.316896 151.102322,931.751472 149.987079,931.752606 C148.871344,931.753996 147.799293,931.31905 146.999921,930.540673 C146.199143,931.316896 145.128005,931.751472 144.012763,931.752606 L143.782325,931.752606 L143.782325,938.518946 C143.782325,939.642117 144.779182,940.369277 145.620707,940.369277 L160.351665,940.369277 C161.462888,940.369277 162.191754,939.527752 162.191754,938.518946 L162.191754,931.750899 L161.961317,931.750899 C160.837045,931.757353 159.755179,931.322154 158.948554,930.538966 L158.948554,930.540673 Z" id="经营活跃力"></path>
        </g>
    </g>
</svg>