<?xml version="1.0" encoding="UTF-8"?>
<svg width="20px" height="20px" viewBox="0 0 20 20" version="1.1" xmlns="http://www.w3.org/2000/svg" xmlns:xlink="http://www.w3.org/1999/xlink">
    <title>经营活跃力2</title>
    <g id="页面-1" stroke="none" stroke-width="1" fill="none" fill-rule="evenodd">
        <g id="2温岭小微帮扶-活力晴雨表备份" transform="translate(-720.000000, -609.000000)">
            <g id="经营活跃力2" transform="translate(720.000000, 609.000000)">
                <rect id="矩形备份-46" x="0" y="0" width="20" height="20"></rect>
                <path d="M18.4828571,3.36142856 L1.53857144,3.36142856 L0,7.96571428 C0,9.38714286 1.12142857,10.53 2.5,10.53 C3.87857144,10.53 5,9.37571428 5,7.96571428 C5,9.38714286 6.12142857,10.53 7.5,10.53 C8.87857144,10.53 10,9.37571428 10,7.96571428 C10,9.38714286 11.1214286,10.53 12.5,10.53 C13.8785714,10.53 15,9.37571428 15,7.96571428 C15,9.38714286 16.1214286,10.53 17.5,10.53 C18.8785714,10.53 20,9.37571428 20,7.96571428 L18.4828571,3.36142856 Z M3.23714286,2.56 L16.7942857,2.56 C17.3085714,2.56 17.7242857,2.21714286 17.7242857,1.78 C17.7242857,1.35142858 17.3071429,1 16.7957143,1 L3.23571429,1 C2.72285715,1 2.30714286,1.35285714 2.30714286,1.78 C2.30714286,2.20857142 2.72285715,2.56 3.23571429,2.56 L3.23714286,2.56 Z M15.0214286,10.6585714 C14.351245,11.308205 13.4547929,11.6719084 12.5214286,11.6728571 C11.5876522,11.6740209 10.6904359,11.3100074 10.0214286,10.6585714 C9.35124498,11.308205 8.45479285,11.6719084 7.52142857,11.6728571 C6.58765219,11.6740209 5.69043588,11.3100074 5.02142857,10.6585714 C4.35124498,11.308205 3.45479285,11.6719084 2.52142857,11.6728571 L2.32857143,11.6728571 L2.32857143,17.3357143 C2.32857143,18.2757143 3.16285714,18.8842857 3.86714286,18.8842857 L16.1957143,18.8842857 C17.1257143,18.8842857 17.7357143,18.18 17.7357143,17.3357143 L17.7357143,11.6714286 L17.5428571,11.6714286 C16.6019365,11.6768301 15.6965058,11.3126058 15.0214286,10.6571429 L15.0214286,10.6585714 Z" id="经营活跃力" fill="#B65DFF" fill-rule="nonzero"></path>
            </g>
        </g>
    </g>
</svg>