<?xml version="1.0" encoding="UTF-8"?>
<svg width="24px" height="24px" viewBox="0 0 24 24" version="1.1" xmlns="http://www.w3.org/2000/svg" xmlns:xlink="http://www.w3.org/1999/xlink">
    <title>科技创新力</title>
    <g id="页面-1" stroke="none" stroke-width="1" fill="none" fill-rule="evenodd">
        <g id="3温岭小微帮扶-活力晴雨表备份-2" transform="translate(-141.000000, -1440.000000)" fill="#158DFF" fill-rule="nonzero">
            <path d="M145.447411,1440 C145.482635,1440.00542 145.517859,1440.00813 145.555793,1440.01355 C146.68838,1440.08671 147.793871,1440.39559 148.845172,1440.80473 C150.292065,1441.37374 151.657672,1442.13241 152.950121,1442.99404 C152.979926,1443.02113 153.01515,1442.99404 153.044955,1442.97778 C154.345533,1442.11344 155.719268,1441.35477 157.17429,1440.78577 C158.28791,1440.35495 159.46114,1440.04335 160.661465,1440.00271 L161.149182,1440.00271 C161.300916,1440.0271 161.455359,1440.0298 161.607094,1440.05148 C162.04062,1440.10838 162.466017,1440.22489 162.864319,1440.40914 C163.476674,1440.68822 164.005034,1441.14884 164.354565,1441.72327 C164.777253,1442.40336 164.950663,1443.2108 164.964211,1444.00199 C164.980468,1444.9151 164.812477,1445.8228 164.55778,1446.69527 C164.175735,1447.9823 163.604023,1449.2043 162.948315,1450.37211 C162.642137,1450.92215 162.300735,1451.45322 161.959333,1451.98158 C162.089391,1452.20647 162.243835,1452.4151 162.376602,1452.63728 C162.937477,1453.53143 163.44416,1454.4608 163.872267,1455.4254 C164.286826,1456.36561 164.630937,1457.34375 164.820605,1458.35712 C164.994016,1459.29462 165.042787,1460.27547 164.796219,1461.20484 C164.611971,1461.9039 164.229926,1462.55961 163.67718,1463.03107 C163.045858,1463.5784 162.219449,1463.86019 161.39575,1463.93335 C160.39864,1464.02276 159.393401,1463.8629 158.431516,1463.59736 C157.485887,1463.33183 156.572773,1462.95791 155.692173,1462.52168 C154.765511,1462.06647 153.874073,1461.53811 153.01244,1460.9664 C152.988055,1460.94473 152.95825,1460.95827 152.936573,1460.97453 C152.153517,1461.49747 151.343365,1461.97977 150.506118,1462.40517 C149.373531,1462.97959 148.189464,1463.4646 146.948495,1463.74368 C146.081443,1463.93605 145.179167,1464.02547 144.295858,1463.90083 C143.52364,1463.78974 142.764969,1463.48085 142.190547,1462.94165 C141.637802,1462.43497 141.280143,1461.73862 141.12299,1461.00975 C140.917065,1460.07496 140.992932,1459.10495 141.17989,1458.17287 C141.374977,1457.23537 141.694702,1456.32767 142.079456,1455.45249 C142.46963,1454.56918 142.924832,1453.71568 143.428806,1452.89198 C143.613055,1452.58038 143.818979,1452.28233 144.008647,1451.97345 C143.916523,1451.81629 143.810851,1451.67269 143.716017,1451.51824 C142.87877,1450.20683 142.139066,1448.81142 141.618835,1447.33201 C141.274724,1446.34303 141.025446,1445.31069 141.006479,1444.25939 C140.990222,1443.51156 141.104023,1442.75018 141.426458,1442.07009 C141.721797,1441.44689 142.204095,1440.91311 142.800193,1440.569 C143.453192,1440.18425 144.211862,1440.0271 144.959695,1440 L145.447411,1440 Z M152.633105,1448.67052 C151.801277,1448.75181 151.012802,1449.16908 150.465475,1449.8004 C149.880215,1450.46965 149.587585,1451.37735 149.666161,1452.26066 C149.7339,1453.12771 150.164716,1453.95954 150.828553,1454.5177 C151.478842,1455.07587 152.351313,1455.36037 153.204818,1455.30076 C154.120641,1455.24657 155.003951,1454.78595 155.575663,1454.06792 C156.158214,1453.35531 156.41562,1452.39072 156.274724,1451.48302 C156.152794,1450.64306 155.692173,1449.86272 155.020208,1449.3452 C154.353661,1448.82496 153.478481,1448.5784 152.633105,1448.67052 Z M153.855107,1450.18515 C154.18567,1450.34772 154.472881,1450.60242 154.670677,1450.91402 C154.919955,1451.30148 155.025627,1451.77836 154.963307,1452.23627 C154.917245,1452.6129 154.757383,1452.97056 154.513524,1453.26048 C154.229023,1453.60188 153.825302,1453.84574 153.389066,1453.93515 C152.996183,1454.01644 152.578914,1453.9785 152.210417,1453.82135 C151.831082,1453.66149 151.505937,1453.38241 151.289174,1453.03288 C151.050735,1452.65354 150.950482,1452.19292 151.001964,1451.74855 C151.053445,1451.29877 151.264789,1450.86796 151.592643,1450.55636 C151.890692,1450.25831 152.288994,1450.06593 152.703553,1450.00632 C153.093727,1449.94942 153.500157,1450.01445 153.855107,1450.18515 Z" id="科技创新力"></path>
        </g>
    </g>
</svg>