<?xml version="1.0" encoding="UTF-8"?>
<svg width="20px" height="20px" viewBox="0 0 20 20" version="1.1" xmlns="http://www.w3.org/2000/svg" xmlns:xlink="http://www.w3.org/1999/xlink">
    <title>人员聚集力2</title>
    <g id="页面-1" stroke="none" stroke-width="1" fill="none" fill-rule="evenodd">
        <g id="2温岭小微帮扶-活力晴雨表备份" transform="translate(-1036.000000, -609.000000)">
            <g id="人员聚集力2" transform="translate(1036.000000, 609.000000)">
                <rect id="矩形备份-48" x="0" y="0" width="20" height="20"></rect>
                <path d="M11.383143,11.2989452 L10.1935837,13.2556528 L10.1935837,13.7886302 L11.5258014,18.6179093 L13.5497318,11.3039345 C16.2197931,11.4179914 18.368601,13.6370608 18.368601,16.3339989 L18.368601,18.2375895 C18.368601,19.2070426 17.5758694,20 16.6066422,20 L2.76241049,20 C1.79316274,20 1,19.2070426 1,18.2375895 L1,16.3340194 C1,13.6407361 3.143182,11.4238431 5.80847984,11.3041398 L7.83195853,18.6179093 L9.16417627,13.7886302 L9.16417627,13.2556528 L7.97463747,11.2989452 L11.383143,11.2989452 Z M9.73823884,-1.27275968e-12 C12.4460385,-1.27275968e-12 14.654698,2.23880091 14.654698,4.9839078 C14.654698,7.72878886 12.4460386,9.96758977 9.73823884,9.96758977 C7.03011063,9.96758977 4.82145113,7.72878884 4.82145113,4.9839078 C4.82145113,2.23880091 7.03011061,-1.27275968e-12 9.73823884,-1.27275968e-12 Z" id="人力聚集力" fill="#15FF8B" fill-rule="nonzero"></path>
            </g>
        </g>
    </g>
</svg>