<?xml version="1.0" encoding="UTF-8"?>
<svg width="20px" height="20px" viewBox="0 0 20 20" version="1.1" xmlns="http://www.w3.org/2000/svg" xmlns:xlink="http://www.w3.org/1999/xlink">
    <title>政府支持力2</title>
    <g id="页面-1" stroke="none" stroke-width="1" fill="none" fill-rule="evenodd">
        <g id="2温岭小微帮扶-活力晴雨表备份" transform="translate(-1194.000000, -609.000000)">
            <g id="政府支持力2" transform="translate(1194.000000, 609.000000)">
                <rect id="矩形备份-49" x="0" y="0" width="20" height="20"></rect>
                <path d="M9.49282,0.186445157 C9.60394831,0.123809207 9.71013756,0.0452336461 9.8372055,0.017170932 C10.0026632,-0.0171778233 10.182938,-0.00236070868 10.3313336,0.0831744112 C13.4175573,1.89086144 16.504679,3.69742593 19.5909027,5.50488845 C19.762871,5.6090572 19.9031845,5.77137186 19.9629019,5.96511675 C20.0441715,6.23070217 19.9914136,6.53939189 19.8095673,6.75244394 C19.6600492,6.93024922 19.428588,7.03037694 19.1973514,7.03127493 C18.7782069,7.03374445 18.3590624,7.03127493 17.9401423,7.03239745 C17.9399178,10.2407501 17.9399178,13.4488781 17.9401423,16.6572308 C18.1053755,16.6574553 18.2706087,16.6572308 18.4358419,16.6574553 C18.6385669,16.6594758 18.8453329,16.6428627 19.0426698,16.7005596 C19.4770804,16.8134839 19.83314,17.1776255 19.9364107,17.6145056 C19.9887196,17.8131896 19.9680654,18.0201801 19.9725555,18.2231295 C19.9797395,18.5414728 19.8605292,18.8602651 19.6450076,19.0946448 C19.4142199,19.3505767 19.0741,19.5043603 18.7292655,19.5054828 C12.9140001,19.5057259 7.09895926,19.5054828 1.2836939,19.5057259 C0.964003587,19.5075033 0.646558312,19.3793128 0.416444151,19.1577298 C0.169043382,18.9237991 0.0244643228,18.5859241 0.0273828534,18.2455797 C0.0320973795,18.0421812 0.0107697244,17.8354152 0.0583640791,17.6356088 C0.128633086,17.3213065 0.326194505,17.0384345 0.596045445,16.8628742 C0.799219408,16.7286223 1.04235467,16.6565572 1.28571441,16.6574553 C1.53760522,16.6570063 1.78949604,16.6576798 2.04138685,16.6572308 C2.04093785,13.4488781 2.04183585,10.2405256 2.04093785,7.03217295 C1.6305489,7.03194845 1.22038445,7.03307095 0.810219994,7.03172395 C0.595371947,7.03172395 0.379401384,6.94843385 0.228536302,6.79397673 C-0.0323345847,6.53108533 -0.0752143943,6.08320461 0.127510569,5.77384139 C0.200922606,5.66181509 0.301948319,5.56887142 0.416668651,5.50017391 C3.44205244,3.72908067 6.46743622,1.95776291 9.49282,0.186445157 M9.92880214,4.26249651 C9.82912342,4.31907092 9.76379346,4.41740262 9.71732162,4.51955085 C9.44791968,5.0677838 9.17604823,5.61466974 8.90709529,6.16312719 C8.28230728,6.25607087 7.65684578,6.3440755 7.03205778,6.43634566 C6.85178299,6.45924483 6.69081532,6.59012927 6.63491443,6.76344451 C6.5736255,6.93810676 6.62481186,7.14352575 6.75906383,7.27059367 C7.21098558,7.71129035 7.66380534,8.15086451 8.11572709,8.59178567 C8.00953783,9.21253264 7.90289956,9.83327962 7.7969348,10.4542511 C7.7688721,10.5970341 7.80883338,10.7510422 7.90357307,10.8617215 C8.00212928,10.9804829 8.15972942,11.0451393 8.31351301,11.0325673 C8.41296723,11.0276282 8.50231888,10.9798094 8.58807849,10.933113 C9.11902482,10.653384 9.65064464,10.375002 10.181591,10.0950485 C10.7453145,10.3900436 11.3076911,10.6875083 11.8711901,10.9829524 C12.0236267,11.061528 12.2178206,11.0529969 12.3603791,10.9560122 C12.5170813,10.8554355 12.6050859,10.6580986 12.5732067,10.4742317 C12.4670174,9.84697422 12.3581341,9.2203902 12.2512714,8.59313269 C12.6778244,8.17735569 13.1043775,7.76157869 13.5309306,7.3460262 C13.6128737,7.26992015 13.6959393,7.18752806 13.7296145,7.07774677 C13.8052716,6.86761325 13.7116544,6.61572244 13.519481,6.50369614 C13.4260883,6.44487672 13.3142865,6.43477415 13.2076483,6.41995703 C12.6241685,6.33531993 12.0406889,6.25068281 11.4572092,6.1658212 C11.1826437,5.60973069 10.9078537,5.0538647 10.6341862,4.49754969 C10.5933269,4.40909606 10.5336095,4.32692847 10.4509929,4.27327258 C10.2985563,4.16887933 10.0855043,4.16438929 9.92880214,4.26249651 M4.90670098,13.9448022 C4.72777319,13.9892535 4.58611268,14.1538132 4.57286708,14.3383535 C4.56747903,14.4564414 4.55962148,14.5821623 4.61417537,14.6910456 C4.68736289,14.8490947 4.85865763,14.953488 5.0326464,14.9467529 C8.30296144,14.9465284 11.573501,14.9467529 14.843816,14.9467529 C14.9466378,14.9460794 15.0546231,14.955733 15.1511587,14.9126287 C15.3087589,14.8495438 15.4225812,14.6896986 15.4272957,14.5195264 C15.4297653,14.4115411 15.4371738,14.2979433 15.3900285,14.197591 C15.321331,14.0377459 15.1531793,13.9281891 14.978966,13.9306586 C11.7014669,13.9299851 8.42396781,13.9306586 5.14669321,13.9304341 C5.06654614,13.9306586 4.98505205,13.9252706 4.90670098,13.9448022 M4.908048,16.0795881 C4.72934472,16.1231414 4.58723519,16.2865786 4.57309158,16.4706699 C4.56680554,16.5941458 4.55939698,16.7268262 4.62068593,16.8393016 C4.69724098,16.9912892 4.86516819,17.0882738 5.03489141,17.0824368 C8.34943328,17.0822123 11.6637506,17.0831103 14.9782925,17.0819878 C15.1951611,17.0869269 15.3976615,16.9131626 15.4237037,16.6974165 C15.4400923,16.5292648 15.4362758,16.3370914 15.3087589,16.2095745 C15.2045901,16.0903642 15.0400304,16.0530969 14.8878183,16.064322 C11.6556686,16.06522 8.42374329,16.0645465 5.19181804,16.064771 C5.09707835,16.0658935 5.00099166,16.0575869 4.908048,16.0795881 L4.908048,16.0795881 Z" id="政府支持力" fill="#0045FF" fill-rule="nonzero"></path>
            </g>
        </g>
    </g>
</svg>