<?xml version="1.0" encoding="UTF-8"?>
<svg width="60px" height="60px" viewBox="0 0 60 60" version="1.1" xmlns="http://www.w3.org/2000/svg" xmlns:xlink="http://www.w3.org/1999/xlink">
    <title>活力综合指数</title>
    <g id="页面-1" stroke="none" stroke-width="1" fill="none" fill-rule="evenodd">
        <g id="2温岭小微帮扶-活力晴雨表备份" transform="translate(-238.000000, -637.000000)" fill="#158DFF" fill-rule="nonzero">
            <path d="M281.904587,662.674743 C279.932559,664.633763 276.966665,665.220168 274.390068,664.160092 C271.813178,663.100367 270.132946,660.602637 270.132946,657.832212 C270.132946,655.062138 271.813119,652.564408 274.390068,651.504331 C276.966665,650.444607 279.932559,651.03066 281.904587,652.990032 C284.596789,655.665008 284.596789,660.001349 281.904587,662.676618 L281.904587,662.674743 L281.904587,662.674743 Z M297.393467,637.603222 C297.00706,637.218113 296.48413,637.001296 295.938587,637 L295.882395,637 C289.20518,637.131836 272.725539,638.372732 263.975573,647.062288 C260.797731,650.164261 258.073107,653.698787 255.882149,657.561509 C253.842035,660.801797 251.052392,665.24132 245.953689,672.531191 C245.381346,673.350272 245.481014,674.458747 246.190114,675.164566 L259.569917,688.447219 C259.959358,688.836657 260.488231,689.054391 261.038977,689.052042 C261.460198,689.052799 261.871938,688.927011 262.220811,688.690969 C269.563298,683.633634 274.040146,680.854068 277.291391,678.832704 C281.17908,676.657708 284.739055,673.950271 287.867018,670.789905 C296.633449,662.084177 297.868193,645.729224 297.999536,639.106207 C298.011478,638.544058 297.792599,638.001447 297.393584,637.605272 L297.393584,637.603222 L297.393467,637.603222 Z M255.771114,688.78841 L255.771114,688.790051 C255.912735,688.727063 256.060098,688.667297 256.183789,688.596926 L256.729296,689.138742 C254.320218,692.331217 250.885165,694.610803 246.994019,695.599454 C244.932128,696.221509 242.793937,696.554642 240.640534,696.589335 C240.293419,696.610076 239.945244,696.574117 239.609696,696.48287 C239.205945,696.349992 238.844944,696.111826 238.563916,695.79293 C238.283616,695.469582 238.09969,695.074058 238.033058,694.65135 C237.996213,694.322653 237.990152,693.991234 238.014952,693.66141 C238.096037,691.310137 238.525029,688.98385 239.287958,686.758316 C239.978593,684.688451 241.005764,682.746613 242.328148,681.010923 C243.22162,679.84144 244.299455,678.825151 245.519393,678.001905 L246.064783,678.543837 C245.748611,679.213914 245.43203,679.889616 245.181015,680.592154 C244.767121,681.718432 244.406661,682.863632 244.100841,684.023926 C243.499449,686.442356 243.095078,688.905554 242.891702,691.389324 L242.860882,691.772468 C243.900802,691.692956 244.939081,691.573718 245.966404,691.432859 C248.419142,691.109783 250.836546,690.559448 253.187427,689.788956 C254.069203,689.498155 254.911077,689.135109 255.771114,688.78841 L255.771114,688.78841 Z M263.375633,691.35493 L263.375633,691.356922 C263.751566,691.210338 264.108646,691.019377 264.439283,690.788095 C269.039165,687.598263 273.719969,684.526734 278.477092,681.576528 C277.806019,689.106339 268.374257,696.318515 268.374257,696.318515 L263.375633,691.35493 L263.375633,691.35493 Z M243.839103,670.33305 C243.608801,670.662746 243.41841,671.01859 243.271916,671.393127 L238.269366,666.424385 C238.269366,666.424385 245.531932,657.055611 253.11272,656.38946 C250.143904,661.11757 247.051635,665.767031 243.839103,670.33305 L243.839103,670.33305 Z" id="活力综合指数"></path>
        </g>
    </g>
</svg>