<?xml version="1.0" standalone="no"?><!DOCTYPE svg PUBLIC "-//W3C//DTD SVG 1.1//EN" "http://www.w3.org/Graphics/SVG/1.1/DTD/svg11.dtd"><svg t="1630345953049" class="icon" viewBox="0 0 1024 1024" version="1.1" xmlns="http://www.w3.org/2000/svg" p-id="36312" xmlns:xlink="http://www.w3.org/1999/xlink" width="200" height="200"><defs><style type="text/css"></style></defs><path d="M832 243.2V64c0-36.266667-27.733333-64-64-64H256c-36.266667 0-64 27.733333-64 64v179.2c0 17.066667 6.4 32 19.2 44.8L475.733333 512 211.2 736c-12.8 12.8-19.2 27.733333-19.2 44.8V960c0 36.266667 27.733333 64 64 64h512c36.266667 0 64-27.733333 64-64v-179.2c0-17.066667-6.4-32-19.2-44.8L550.4 512l264.533333-224c10.666667-12.8 17.066667-27.733333 17.066667-44.8z m-313.6 298.666667l264.533333 224c4.266667 4.266667 6.4 8.533333 6.4 14.933333V960c0 12.8-8.533333 21.333333-21.333333 21.333333H256c-12.8 0-21.333333-8.533333-21.333333-21.333333v-179.2c0-6.4 2.133333-10.666667 6.4-14.933333l264.533333-224" fill="#17abe3" p-id="36313"></path></svg>