<?xml version="1.0" encoding="UTF-8"?>
<svg width="24px" height="24px" viewBox="0 0 24 24" version="1.1" xmlns="http://www.w3.org/2000/svg" xmlns:xlink="http://www.w3.org/1999/xlink">
    <title>概览</title>
    <g id="页面-1" stroke="none" stroke-width="1" fill="none" fill-rule="evenodd">
        <g id="2温岭小微帮扶-活力晴雨表备份" transform="translate(-141.000000, -435.000000)" fill="#158DFF" fill-rule="nonzero">
            <path d="M152.26794,447.657237 L152.26794,453.264561 C152.26794,456.360713 149.749034,458.870294 146.63529,458.870294 C143.521546,458.870294 141.00264,456.360103 141.00264,453.263951 C141.00264,450.167799 143.526827,447.657237 146.640571,447.657237 L146.640571,447.657237 L152.26794,447.657237 Z M159.36207,447.657237 C162.475813,447.657237 164.996,450.167772 164.996,453.263924 C164.996,456.360076 162.46776,458.870638 159.354016,458.870638 C156.240272,458.870638 153.708032,456.360713 153.708032,453.264561 L153.708032,453.264561 L153.708032,447.657237 Z M146.63529,435.008857 C149.749034,435.008857 152.26794,437.518809 152.26794,440.614961 L152.26794,440.614961 L152.26794,446.198764 L146.640571,446.198764 C143.526827,446.198764 141,443.699949 141,440.603797 C141,437.507645 143.521546,435.008857 146.63529,435.008857 Z M159.360683,435 C162.474427,435 165,437.501042 165,440.597194 C165,443.693346 162.475813,446.185505 159.36207,446.185505 L159.36207,446.185505 L153.721366,446.185505 L153.721366,440.614961 C153.721366,437.518809 156.246939,435 159.360683,435 Z" id="概览"></path>
        </g>
    </g>
</svg>