<?xml version="1.0" encoding="UTF-8"?>
<svg width="23px" height="26px" viewBox="0 0 23 26" version="1.1" xmlns="http://www.w3.org/2000/svg" xmlns:xlink="http://www.w3.org/1999/xlink">
    <title>人力聚集力</title>
    <g id="页面-1" stroke="none" stroke-width="1" fill="none" fill-rule="evenodd">
        <g id="3温岭小微帮扶-活力晴雨表备份-2" transform="translate(-141.000000, -1961.000000)" fill="#158DFF" fill-rule="nonzero">
            <path d="M154.498086,1975.68863 L152.951659,1978.23235 L152.951659,1978.92522 L154.683542,1985.20328 L157.314651,1975.69511 C160.785731,1975.84339 163.579181,1978.72818 163.579181,1982.2342 L163.579181,1984.70887 C163.579181,1985.96916 162.54863,1987 161.288635,1987 L143.291134,1987 C142.031112,1987 141,1985.96916 141,1984.70887 L141,1982.23423 C141,1978.73296 143.786137,1975.851 147.251024,1975.69538 L149.881546,1985.20328 L151.613429,1978.92522 L151.613429,1978.23235 L150.067029,1975.68863 L154.498086,1975.68863 Z M152.35971,1961 C155.87985,1961 158.751107,1963.91044 158.751107,1967.47908 C158.751107,1971.04743 155.87985,1973.95787 152.35971,1973.95787 C148.839144,1973.95787 145.967886,1971.04743 145.967886,1967.47908 C145.967886,1963.91044 148.839144,1961 152.35971,1961 Z" id="人力聚集力"></path>
        </g>
    </g>
</svg>