<?xml version="1.0" encoding="UTF-8"?>
<svg width="24px" height="24px" viewBox="0 0 24 24" version="1.1" xmlns="http://www.w3.org/2000/svg" xmlns:xlink="http://www.w3.org/1999/xlink">
    <title>政府支持力</title>
    <g id="页面-1" stroke="none" stroke-width="1" fill="none" fill-rule="evenodd">
        <g id="2温岭小微帮扶-活力晴雨表备份" transform="translate(-141.000000, -7809.000000)" fill="#158DFF" fill-rule="nonzero">
            <path d="M152.391384,7809.22373 C152.524738,7809.14857 152.652165,7809.05428 152.804647,7809.02061 C153.003196,7808.97939 153.219526,7808.99717 153.3976,7809.09981 C157.101069,7811.26903 160.805615,7813.43691 164.509083,7815.60587 C164.715445,7815.73087 164.883821,7815.92565 164.955482,7816.15814 C165.053006,7816.47684 164.989696,7816.84727 164.771481,7817.10293 C164.592059,7817.3163 164.314306,7817.43645 164.036822,7817.43753 C163.533848,7817.44049 163.030875,7817.43753 162.528171,7817.43888 C162.527901,7821.2889 162.527901,7825.13865 162.528171,7828.98868 C162.726451,7828.98895 162.92473,7828.98868 163.12301,7828.98895 C163.36628,7828.99137 163.614399,7828.97144 163.851204,7829.04067 C164.372496,7829.17618 164.799768,7829.61315 164.923693,7830.13741 C164.986464,7830.37583 164.961679,7830.62422 164.967067,7830.86776 C164.975687,7831.24977 164.832635,7831.63232 164.574009,7831.91357 C164.297064,7832.22069 163.88892,7832.40523 163.475119,7832.40658 C156.4968,7832.40687 149.518751,7832.40658 142.540433,7832.40687 C142.156804,7832.409 141.77587,7832.25518 141.499733,7831.98928 C141.202852,7831.70856 141.029357,7831.30311 141.032859,7830.8947 C141.038517,7830.65062 141.012924,7830.4025 141.070037,7830.16273 C141.15436,7829.78557 141.391433,7829.44612 141.715255,7829.23545 C141.959063,7829.07435 142.250826,7828.98787 142.542857,7828.98895 C142.845126,7828.98841 143.147395,7828.98922 143.449664,7828.98868 C143.449125,7825.13865 143.450203,7821.28863 143.449125,7817.43861 C142.956659,7817.43834 142.464461,7817.43969 141.972264,7817.43807 C141.714446,7817.43807 141.455282,7817.33812 141.274244,7817.15277 C140.961198,7816.8373 140.909743,7816.29985 141.153013,7815.92861 C141.241107,7815.79418 141.362338,7815.68265 141.5,7815.60021 C145.130463,7813.4749 148.760923,7811.34932 152.391384,7809.22373 M152.914563,7814.115 C152.794948,7814.18289 152.716552,7814.30088 152.660786,7814.42346 C152.337504,7815.08134 152.011258,7815.7376 151.688514,7816.39575 C150.938769,7816.50729 150.188215,7816.61289 149.438469,7816.72361 C149.22214,7816.75109 149.028978,7816.90816 148.961897,7817.11613 C148.888351,7817.32573 148.949774,7817.57223 149.110877,7817.72471 C149.653183,7818.25355 150.196566,7818.78104 150.738873,7819.31014 C150.611445,7820.05504 150.483479,7820.79994 150.356322,7821.5451 C150.322647,7821.71644 150.3706,7821.90125 150.484288,7822.03407 C150.602555,7822.17658 150.791675,7822.25417 150.976216,7822.23908 C151.095561,7822.23315 151.202783,7822.17577 151.305694,7822.11974 C151.94283,7821.78406 152.580774,7821.45 153.217909,7821.11406 C153.894377,7821.46805 154.569229,7821.82501 155.245428,7822.17954 C155.428352,7822.27383 155.661385,7822.2636 155.832455,7822.14721 C156.020498,7822.02652 156.126103,7821.78972 156.087848,7821.56908 C155.960421,7820.81637 155.829761,7820.06447 155.701526,7819.31176 C156.213389,7818.81283 156.725253,7818.31389 157.237117,7817.81523 C157.335448,7817.7239 157.435127,7817.62503 157.475537,7817.4933 C157.566326,7817.24114 157.453985,7816.93887 157.223377,7816.80444 C157.111306,7816.73385 156.977144,7816.72173 156.849178,7816.70395 C156.149002,7816.60238 155.448827,7816.50082 154.748651,7816.39899 C154.419172,7815.73168 154.089424,7815.06464 153.761023,7814.39706 C153.711992,7814.29092 153.640331,7814.19231 153.541191,7814.12793 C153.358268,7814.00266 153.102605,7813.99727 152.914563,7814.115 M146.888041,7825.73376 C146.673328,7825.7871 146.503335,7825.98458 146.48744,7826.20602 C146.480975,7826.34773 146.471546,7826.49859 146.53701,7826.62925 C146.624835,7826.81891 146.830389,7826.94419 147.039176,7826.9361 C150.963554,7826.93583 154.888201,7826.9361 158.812579,7826.9361 C158.935965,7826.9353 159.065548,7826.94688 159.18139,7826.89515 C159.370511,7826.81945 159.507097,7826.62764 159.512755,7826.42343 C159.515718,7826.29385 159.524609,7826.15753 159.468034,7826.03711 C159.385597,7825.8453 159.183815,7825.71383 158.974759,7825.71679 C155.04176,7825.71598 151.108761,7825.71679 147.176032,7825.71652 C147.079855,7825.71679 146.982062,7825.71032 146.888041,7825.73376 M146.889658,7828.29551 C146.675214,7828.34777 146.504682,7828.54389 146.48771,7828.7648 C146.480167,7828.91297 146.471276,7829.07219 146.544823,7829.20716 C146.636689,7829.38955 146.838202,7829.50593 147.04187,7829.49892 C151.01932,7829.49865 154.996501,7829.49973 158.973951,7829.49839 C159.234193,7829.50431 159.477194,7829.2958 159.508444,7829.0369 C159.528111,7828.83512 159.523531,7828.60451 159.370511,7828.45149 C159.245508,7828.30844 159.048037,7828.26372 158.865382,7828.27719 C154.986802,7828.27826 151.108492,7828.27746 147.230182,7828.27773 C147.116494,7828.27907 147.00119,7828.2691 146.889658,7828.29551 L146.889658,7828.29551 Z" id="政府支持力"></path>
        </g>
    </g>
</svg>