<?xml version="1.0" encoding="UTF-8"?>
<svg width="20px" height="20px" viewBox="0 0 20 20" version="1.1" xmlns="http://www.w3.org/2000/svg" xmlns:xlink="http://www.w3.org/1999/xlink">
    <title>专业创新力2</title>
    <g id="页面-1" stroke="none" stroke-width="1" fill="none" fill-rule="evenodd">
        <g id="2温岭小微帮扶-活力晴雨表备份" transform="translate(-878.000000, -609.000000)">
            <g id="专业创新力2" transform="translate(878.000000, 609.000000)">
                <rect id="矩形备份-47" x="0" y="0" width="20" height="20"></rect>
                <path d="M19.6961753,3.08026563 C19.3060794,2.41010084 18.5758998,2 17.7757031,2 L2.48194251,2 C1.45168919,2 0.67149736,2.37009101 0.271398978,3.04025578 C-0.0286748047,3.54037876 -0.228724004,4.40059028 0.501455535,5.75092231 L2.87203844,9.62187412 C5.01256476,13.1227349 7.44316241,17.0937114 7.81325342,17.6638515 C8.20334934,18.2639991 9.06356086,18.8741491 10.0938142,18.8741491 C10.6639544,18.8741491 11.4941585,18.6841024 12.2543454,17.7138639 L19.5461384,5.82093952 C20.0962737,4.85070095 20.146286,3.850455 19.6961753,3.08026563 M15.4651349,6.67114858 C13.7347094,8.63163064 11.004038,11.7824054 10.1638314,12.8126587 C9.71372073,13.362794 9.21359775,13.1527423 8.82350182,12.8226612 L6.55294352,9.63187658 C6.10283285,8.97171427 6.90302961,8.2215298 7.8932731,9.25178313 L8.96353626,10.3120438 C9.18359037,10.5320979 9.5436789,10.5421004 9.77373548,10.3220463 C10.9340208,9.21177328 13.8447365,6.35106988 15.0150242,5.49085836 C15.6051693,5.07075506 16.1553046,5.89095674 15.4651349,6.67114858" id="专业创新力" fill="#FFC715" fill-rule="nonzero"></path>
            </g>
        </g>
    </g>
</svg>