<?xml version="1.0" encoding="UTF-8"?>
<svg width="24px" height="21px" viewBox="0 0 24 21" version="1.1" xmlns="http://www.w3.org/2000/svg" xmlns:xlink="http://www.w3.org/1999/xlink">
    <title>专业创新力</title>
    <g id="页面-1" stroke="none" stroke-width="1" fill="none" fill-rule="evenodd">
        <g id="2温岭小微帮扶-活力晴雨表备份" transform="translate(-141.000000, -4468.000000)" fill="#158DFF" fill-rule="nonzero">
            <path d="M164.634861,4469.29629 C164.166757,4468.49211 163.290562,4468 162.330348,4468 L143.978262,4468 C142.741987,4468 141.805778,4468.4441 141.325671,4469.24828 C140.965591,4469.84841 140.725538,4470.88064 141.601733,4472.501 L144.446366,4477.14604 C147.014938,4481.34697 149.931587,4486.11203 150.375686,4486.79619 C150.84379,4487.51635 151.87602,4488.24851 153.112296,4488.24851 C153.796448,4488.24851 154.79267,4488.02046 155.704873,4486.8562 L164.454821,4472.58502 C165.114968,4471.42076 165.174981,4470.22049 164.634861,4469.29629 M159.557731,4473.60525 C157.481268,4475.95777 154.204539,4479.73861 153.196314,4480.97489 C152.656194,4481.63504 152.05606,4481.38298 151.587956,4480.98689 L148.86335,4477.15804 C148.323229,4476.36586 149.283443,4475.46566 150.471708,4476.70194 L151.755994,4477.97422 C152.020052,4478.23828 152.452149,4478.25028 152.72821,4477.98622 C154.12052,4476.65393 157.613298,4473.22116 159.01761,4472.18893 C159.725768,4471.68482 160.385915,4472.66904 159.557731,4473.60525" id="专业创新力"></path>
        </g>
    </g>
</svg>